<svg xmlns="http://www.w3.org/2000/svg" viewBox="-6 498 2055 964">
  <!-- soulbeats · direccion 6 (neon nocturno) · HERO neon: tubo encendido, SOLO sobre navy/oscuro -->
  <defs>
    <filter id="nw" x="-60%" y="-60%" width="220%" height="220%"><feGaussianBlur stdDeviation="30"/></filter>
    <filter id="nt" x="-60%" y="-60%" width="220%" height="220%"><feGaussianBlur stdDeviation="10"/></filter>
  </defs>
  <g opacity=".5" filter="url(#nw)">
  <path fill-rule="evenodd" fill="#2EC4B6" d="M 963.441 759.268 C 1002.81 759.792 990.243 816.744 982.976 840.515 C 958.968 918.848 910.927 985.46 863.083 1050.8 C 852.132 1069.9 810.558 1106.41 808.878 1126.65 C 798.234 1254.81 889.579 1220.98 932.468 1141.24 C 937.714 1131.48 940.507 1108.57 942.718 1097.59 C 945.762 1082.58 949.136 1067.63 952.836 1052.76 C 971.812 976.134 1017.28 824.61 1081.74 770.432 C 1089.95 763.528 1106.34 758.124 1117.01 760.497 C 1123.23 761.881 1130.04 765.173 1133.04 770.898 C 1162.54 827.146 1058.07 959.892 1026.19 998.773 C 1015.39 1012.04 1004.39 1025.14 993.195 1038.07 C 960.667 1075.61 965.999 1070.9 955.728 1118.96 C 971.586 1092.04 994.438 1056.69 1023.01 1042.88 C 1088.48 1011.25 1115.23 1064.71 1096.41 1120.55 C 1119.27 1117.04 1137.1 1112.62 1160.66 1110.3 C 1165.93 1067.64 1192.22 1020.6 1238.64 1013.34 C 1290.56 1005.23 1304.65 1055.06 1274.03 1089.18 C 1250.98 1114.85 1209.83 1122.66 1177.16 1124.68 C 1186.36 1182.85 1229.82 1188.27 1275.76 1163.22 C 1286.48 1157.57 1315.57 1135.43 1318.12 1122.85 C 1328.17 1073.15 1369.78 1005.94 1429.27 1020.75 C 1439.68 1023.35 1446.45 1031.3 1451.76 1041.42 C 1453.21 1033.26 1454.15 1019.84 1462.51 1015.87 C 1465.51 1014.47 1468.96 1014.41 1472.01 1015.71 C 1496.91 1026.11 1466.59 1087.49 1460.58 1102.85 C 1457.83 1109.91 1455.67 1117.17 1454.11 1124.58 C 1447.68 1154.92 1457.48 1188.16 1493.95 1171.88 C 1513.97 1162.94 1555.74 1119.11 1562.15 1098.1 C 1574.3 1058.32 1581.97 1012.72 1597.14 972.777 C 1602.28 959.241 1608.16 944.522 1613.1 930.909 C 1565.23 935.562 1516.61 937.202 1468.74 942.63 C 1465.65 942.981 1462.88 942.588 1459.93 941.738 C 1455.36 937.88 1454.67 933.625 1457.86 928.519 C 1463.05 924.23 1500.61 922.783 1510.02 922.012 C 1546.72 918.667 1583.49 916.172 1620.31 914.531 C 1636.06 875.963 1662.55 816.877 1698.35 793.131 C 1706.04 788.033 1723.19 791.641 1725.26 801.344 C 1732.65 836.054 1706.98 880.824 1693.16 911.266 C 1748.48 911 1800.5 912.209 1853.13 932.018 C 1877.02 941.009 1863.45 954.51 1854.71 950.874 C 1799.23 927.78 1742.99 927.073 1683.92 928.406 C 1677.64 938.331 1670.83 951.194 1664.71 961.598 C 1651.76 983.407 1638.55 1005.06 1625.08 1026.55 C 1617.93 1037.84 1610.6 1049.01 1603.09 1060.07 C 1593.3 1074.29 1584.5 1083.86 1580.13 1101.35 C 1574.29 1124.69 1561.24 1201.94 1582.43 1218.06 C 1613.74 1241.89 1668.84 1156.78 1685.86 1133.96 C 1696.99 1119.04 1708.4 1104.32 1720.08 1089.82 C 1709.82 1074.96 1700.72 1058.86 1702.24 1040.01 C 1702.45 1011.28 1737.77 977.313 1766.19 982.435 C 1814.83 991.202 1780.62 1048.29 1754.62 1063.25 C 1747.27 1067.48 1743.57 1072.45 1735.3 1071.25 C 1732.01 1068.54 1733.22 1070.16 1731.6 1066.12 C 1731.84 1062.04 1734.76 1056.02 1739.47 1052.93 C 1748.65 1046.9 1790.12 1010.33 1767.33 1000.47 C 1751.65 993.683 1724.35 1015.54 1720.65 1032.77 C 1717.24 1048.66 1720.65 1060.55 1730.16 1074.35 C 1746.33 1097.99 1764.61 1116.44 1779.21 1141.52 C 1814.7 1121.3 1849.56 1101.75 1886.84 1085.02 C 1892.67 1082.5 1899.75 1077.46 1905.1 1083.54 C 1916.71 1096.72 1879.03 1107.02 1867.88 1112.58 C 1840.14 1126.5 1812.9 1141.39 1786.2 1157.2 C 1801.63 1199.3 1784.26 1237.27 1746.75 1259.33 C 1728.42 1268.17 1697.56 1274.15 1681.61 1255.38 C 1677.56 1250.61 1675.88 1239.17 1677.89 1233.18 C 1689.96 1197.15 1734.92 1169.64 1765.02 1150.2 C 1753.57 1131.64 1744.09 1119.59 1730.61 1102.33 C 1727.41 1107.16 1721.95 1114.49 1718.3 1118.91 C 1691.18 1151.89 1640.19 1241.89 1593.13 1239.28 C 1583.29 1238.72 1574.1 1234.19 1567.66 1226.72 C 1548.81 1205.07 1553.69 1164.9 1555.24 1138.99 C 1533.44 1165.43 1490.24 1214.3 1450.67 1183.09 C 1439.01 1173.89 1436.43 1156.48 1435.52 1142.27 C 1430.76 1148.1 1426.07 1153.65 1421.08 1159.26 C 1389.06 1195.18 1332.52 1213.66 1318.43 1150.18 C 1295.55 1173.1 1272.31 1189.4 1239.41 1193.55 C 1194.9 1199.17 1165.22 1169.93 1160.6 1126.54 C 1141.32 1129.46 1104.85 1134.69 1086.6 1140.35 C 1055.4 1184.83 1018.15 1220.92 972.206 1250.29 C 965.177 1254.79 951.804 1260.03 943.753 1259.23 C 908.336 1255.7 927.276 1200.31 929.216 1178.8 L 929.338 1177.36 C 928.901 1177.94 928.456 1178.51 928.003 1179.08 C 910.931 1200.31 882.208 1227.11 853.848 1229 C 802.114 1232.45 792.962 1183.36 790.956 1145.11 C 772.666 1166.01 749.556 1187 720.06 1186.57 C 689.307 1186.13 679.851 1163.9 680.904 1136.86 C 670.178 1152.43 657.009 1170.73 641.259 1181.67 C 608.37 1204.52 572.567 1184.67 570.567 1145.74 C 569.925 1133.25 570.987 1125.89 573.703 1113.47 C 547.232 1126.27 530.15 1131.1 502.157 1136.85 C 492.516 1154.95 484.31 1168.93 467.429 1181.81 C 441.348 1201.72 400.969 1203.22 380.165 1174.6 C 368.932 1159.14 368.302 1140.84 371.241 1122.43 C 353.962 1133.72 331.613 1146.07 313.479 1157.23 C 318.914 1169.98 320.894 1183.94 319.22 1197.7 C 316.342 1219.37 304.951 1239.01 287.565 1252.27 C 267.533 1267.65 225.262 1278.9 210.027 1255.7 C 184.91 1217.46 269.033 1166.75 292.436 1150.81 C 284.602 1136.24 265.943 1115.59 254.791 1102.63 C 219.395 1139.78 186.004 1187.11 154.55 1228.05 C 142.307 1243.99 131.221 1231.37 135.941 1224.01 C 144.483 1210.67 157.602 1195.08 167.625 1182.52 C 192.196 1151.24 217.394 1120.44 243.202 1090.17 C 223.62 1062.14 211.583 1030.87 241.118 1002.5 C 253.155 991.29 274.049 982.017 290.432 983.633 C 340.872 988.607 313.275 1042.27 288.235 1060.37 C 280.155 1066.21 275.446 1073.02 265.181 1072.31 C 260.811 1070.27 257.167 1063.02 260.441 1059.9 C 271.571 1049.27 307.293 1024.71 302.085 1006.04 C 294.436 995.82 271.717 1002.14 262.631 1007.85 C 210.619 1040.53 261.38 1084.23 286.357 1113.67 C 293.593 1122.2 300.424 1131.95 306.458 1141.38 C 322.994 1132.61 381.267 1093.3 393.855 1094.53 C 395.771 1096.07 397.563 1097.72 396.969 1100.59 C 393.151 1118.62 383.357 1132.81 387.761 1152.27 C 392.74 1174.42 417.584 1183.94 438.011 1177.35 C 460.197 1170.19 471.275 1157.85 482.177 1138.17 C 455.848 1134.89 432.925 1129.11 417.738 1104.93 C 409.534 1091.64 406.943 1075.64 410.534 1060.44 C 421.533 1015.03 484.087 987.875 509.799 1038.68 C 523.002 1064.77 518.105 1091.95 509.844 1118.73 C 532.183 1113.67 558.515 1103.89 578.203 1092.16 C 585.025 1076.08 587.331 1056.97 595.027 1040.97 C 598.025 1032.52 610.674 1034.11 610.358 1043.31 C 609.995 1050.59 607.328 1056.6 605.446 1063.54 C 597.755 1091.94 584.374 1123.7 588.112 1153.51 C 589.767 1166.71 606.618 1177.79 618.936 1173.29 C 651.768 1161.28 675.78 1116.57 689.84 1086.37 C 695.912 1073.33 695.628 1052 702.873 1038.81 C 705.042 1033.99 711.552 1034.88 715.517 1037.87 C 727.983 1058.23 659.476 1178.91 728.061 1168.62 C 754.188 1164.7 778.261 1137.46 791.282 1116.12 C 794.301 1111.17 797.681 1084.77 799.21 1076.68 C 801.757 1063.71 804.519 1050.79 807.494 1037.91 C 822.723 973.03 889.098 770.51 963.441 759.268 z M 964.336 776.353 C 966.756 776.651 967.798 776.834 969.892 778.223 C 972.281 779.807 973.943 785.388 973.933 788.106 C 973.609 878.027 874.826 1012.42 821.061 1076.07 C 819.168 1078.54 817.094 1080.98 815.106 1083.38 C 831.592 994.015 868.616 887.35 921.003 811.966 C 930.571 798.197 946.829 779.127 964.336 776.353 z M 1106.53 777.078 C 1111 776.676 1114.06 776.314 1117.77 779.272 C 1120.54 781.479 1122.48 786.894 1122.29 790.116 C 1118.09 862.513 1027.21 973.572 983.162 1023.44 L 975.176 1032.95 C 996.862 958.237 1021.51 879.579 1064.54 813.842 C 1075.81 796.622 1087.64 785.248 1106.53 777.078 z M 1406.95 1035.22 C 1440.74 1033.57 1432.3 1049.49 1443.94 1069.43 C 1445.21 1071.6 1451.5 1071.23 1454.22 1071.23 C 1442.84 1105.48 1413.71 1152.65 1380.66 1169.63 C 1302.04 1201.51 1334.75 1050.31 1406.95 1035.22 z M 1052.2 1051.28 C 1096.67 1048.53 1088.46 1098.15 1076.38 1124.95 C 1069.58 1127.68 1057.32 1130.95 1049.9 1133.41 C 1010.89 1146.4 990.407 1154.29 959.886 1181.8 C 952.746 1188.5 947.805 1194.96 942.313 1202.95 C 944.217 1194.6 946.296 1184.54 948.996 1176.56 C 964.339 1131.18 1000.65 1060.02 1052.2 1051.28 z M 467.422 1028.32 C 494.452 1026.94 501.6 1059.08 500.394 1080.15 C 499.527 1095.3 496.403 1107.27 490.72 1121.13 C 479.463 1121.57 474.763 1121.02 463.814 1118.54 C 407.511 1101.49 418.809 1034.55 467.422 1028.32 z M 1244.6 1029.32 C 1250.75 1029.25 1256.96 1029.56 1262.58 1032.42 C 1267.19 1034.73 1270.65 1038.83 1272.14 1043.77 C 1274.82 1052.68 1271.49 1063.26 1266.77 1070.87 C 1253.97 1091.55 1228.88 1099.3 1206.76 1104.64 C 1196.99 1106.44 1187.12 1107.67 1177.21 1108.33 C 1186.24 1072.06 1202.99 1035.03 1244.6 1029.32 z M 1769.93 1166.85 C 1771.76 1167.01 1770.84 1166.74 1772.52 1168.58 C 1783.42 1212.74 1747.58 1258.95 1702.35 1249.17 C 1697.22 1246.87 1691.9 1243.33 1694.45 1236.81 C 1705.7 1208.1 1744.8 1182.68 1769.93 1166.85 z M 298.321 1167.07 L 299.329 1167.64 C 304.154 1177.07 303.66 1190.16 301.524 1200.36 C 295.015 1231.43 262.685 1257.42 230.556 1250.15 C 197.446 1233.09 284.117 1175.76 298.321 1167.07 z M 1059.38 1148.14 L 1060.1 1148.33 L 1059.9 1149.72 C 1035.99 1178.93 983.541 1228.63 948.982 1243.09 L 947.388 1241.84 C 945.819 1235.12 949.951 1222.84 953.347 1217.27 C 976.667 1179.02 1018.35 1159.66 1059.38 1148.14 z M 1708.05 806.937 L 1709.49 808.384 C 1715.63 829.626 1684.41 891.345 1674.01 911.942 C 1663.26 912.48 1652.51 912.873 1641.75 913.123 L 1640.13 912.623 C 1640.16 909.001 1644.47 900.178 1646.18 896.656 C 1660.12 868.079 1680.59 823.461 1708.05 806.937 z M 1630.89 931.064 C 1641.77 930.175 1652.66 929.506 1663.57 929.057 C 1652.24 949.527 1640.45 969.739 1628.21 989.676 C 1626.57 992.337 1617.43 1007.12 1615.72 1009.01 C 1611.95 1007.1 1608.26 1007.51 1603.92 1007.43 C 1611.79 981.59 1620.78 956.11 1630.89 931.064 z M 1603.92 1007.43 C 1608.26 1007.51 1611.95 1007.1 1615.72 1009.01 C 1609.16 1020.45 1600.98 1032.61 1593.75 1043.78 C 1596.02 1032.05 1600.33 1018.96 1603.92 1007.43 z"/>
  <path fill-rule="evenodd" fill="#E5735E" d="M 1285.69 639.353 C 1333.66 633.53 1377.26 667.742 1383.02 715.728 C 1388.77 763.713 1354.49 807.262 1306.5 812.944 C 1258.6 818.616 1215.17 784.426 1209.42 736.539 C 1203.68 688.653 1237.81 645.164 1285.69 639.353 z M 1285.29 656.493 C 1323.79 650.506 1359.84 676.942 1365.7 715.471 C 1371.56 753.999 1345.01 789.958 1306.46 795.693 C 1268.09 801.4 1232.34 774.995 1226.5 736.645 C 1220.67 698.296 1246.96 662.453 1285.29 656.493 z"/>
  <path fill="#E5735E" d="M 347.654 1256.26 C 350.322 1252.98 350.408 1252.7 354.113 1250.89 C 366.768 1250.99 363.338 1263.12 357.645 1270 C 310.354 1318.45 238.708 1337.55 177.637 1302.01 C 169.958 1297.55 158.976 1293 163.817 1282.08 C 165.768 1280.63 169.586 1278.67 171.968 1280.1 C 238.029 1319.77 290.962 1309.19 347.654 1256.26 z"/>
  </g>
  <g opacity=".85" filter="url(#nt)">
  <path fill-rule="evenodd" fill="#2EC4B6" d="M 963.441 759.268 C 1002.81 759.792 990.243 816.744 982.976 840.515 C 958.968 918.848 910.927 985.46 863.083 1050.8 C 852.132 1069.9 810.558 1106.41 808.878 1126.65 C 798.234 1254.81 889.579 1220.98 932.468 1141.24 C 937.714 1131.48 940.507 1108.57 942.718 1097.59 C 945.762 1082.58 949.136 1067.63 952.836 1052.76 C 971.812 976.134 1017.28 824.61 1081.74 770.432 C 1089.95 763.528 1106.34 758.124 1117.01 760.497 C 1123.23 761.881 1130.04 765.173 1133.04 770.898 C 1162.54 827.146 1058.07 959.892 1026.19 998.773 C 1015.39 1012.04 1004.39 1025.14 993.195 1038.07 C 960.667 1075.61 965.999 1070.9 955.728 1118.96 C 971.586 1092.04 994.438 1056.69 1023.01 1042.88 C 1088.48 1011.25 1115.23 1064.71 1096.41 1120.55 C 1119.27 1117.04 1137.1 1112.62 1160.66 1110.3 C 1165.93 1067.64 1192.22 1020.6 1238.64 1013.34 C 1290.56 1005.23 1304.65 1055.06 1274.03 1089.18 C 1250.98 1114.85 1209.83 1122.66 1177.16 1124.68 C 1186.36 1182.85 1229.82 1188.27 1275.76 1163.22 C 1286.48 1157.57 1315.57 1135.43 1318.12 1122.85 C 1328.17 1073.15 1369.78 1005.94 1429.27 1020.75 C 1439.68 1023.35 1446.45 1031.3 1451.76 1041.42 C 1453.21 1033.26 1454.15 1019.84 1462.51 1015.87 C 1465.51 1014.47 1468.96 1014.41 1472.01 1015.71 C 1496.91 1026.11 1466.59 1087.49 1460.58 1102.85 C 1457.83 1109.91 1455.67 1117.17 1454.11 1124.58 C 1447.68 1154.92 1457.48 1188.16 1493.95 1171.88 C 1513.97 1162.94 1555.74 1119.11 1562.15 1098.1 C 1574.3 1058.32 1581.97 1012.72 1597.14 972.777 C 1602.28 959.241 1608.16 944.522 1613.1 930.909 C 1565.23 935.562 1516.61 937.202 1468.74 942.63 C 1465.65 942.981 1462.88 942.588 1459.93 941.738 C 1455.36 937.88 1454.67 933.625 1457.86 928.519 C 1463.05 924.23 1500.61 922.783 1510.02 922.012 C 1546.72 918.667 1583.49 916.172 1620.31 914.531 C 1636.06 875.963 1662.55 816.877 1698.35 793.131 C 1706.04 788.033 1723.19 791.641 1725.26 801.344 C 1732.65 836.054 1706.98 880.824 1693.16 911.266 C 1748.48 911 1800.5 912.209 1853.13 932.018 C 1877.02 941.009 1863.45 954.51 1854.71 950.874 C 1799.23 927.78 1742.99 927.073 1683.92 928.406 C 1677.64 938.331 1670.83 951.194 1664.71 961.598 C 1651.76 983.407 1638.55 1005.06 1625.08 1026.55 C 1617.93 1037.84 1610.6 1049.01 1603.09 1060.07 C 1593.3 1074.29 1584.5 1083.86 1580.13 1101.35 C 1574.29 1124.69 1561.24 1201.94 1582.43 1218.06 C 1613.74 1241.89 1668.84 1156.78 1685.86 1133.96 C 1696.99 1119.04 1708.4 1104.32 1720.08 1089.82 C 1709.82 1074.96 1700.72 1058.86 1702.24 1040.01 C 1702.45 1011.28 1737.77 977.313 1766.19 982.435 C 1814.83 991.202 1780.62 1048.29 1754.62 1063.25 C 1747.27 1067.48 1743.57 1072.45 1735.3 1071.25 C 1732.01 1068.54 1733.22 1070.16 1731.6 1066.12 C 1731.84 1062.04 1734.76 1056.02 1739.47 1052.93 C 1748.65 1046.9 1790.12 1010.33 1767.33 1000.47 C 1751.65 993.683 1724.35 1015.54 1720.65 1032.77 C 1717.24 1048.66 1720.65 1060.55 1730.16 1074.35 C 1746.33 1097.99 1764.61 1116.44 1779.21 1141.52 C 1814.7 1121.3 1849.56 1101.75 1886.84 1085.02 C 1892.67 1082.5 1899.75 1077.46 1905.1 1083.54 C 1916.71 1096.72 1879.03 1107.02 1867.88 1112.58 C 1840.14 1126.5 1812.9 1141.39 1786.2 1157.2 C 1801.63 1199.3 1784.26 1237.27 1746.75 1259.33 C 1728.42 1268.17 1697.56 1274.15 1681.61 1255.38 C 1677.56 1250.61 1675.88 1239.17 1677.89 1233.18 C 1689.96 1197.15 1734.92 1169.64 1765.02 1150.2 C 1753.57 1131.64 1744.09 1119.59 1730.61 1102.33 C 1727.41 1107.16 1721.95 1114.49 1718.3 1118.91 C 1691.18 1151.89 1640.19 1241.89 1593.13 1239.28 C 1583.29 1238.72 1574.1 1234.19 1567.66 1226.72 C 1548.81 1205.07 1553.69 1164.9 1555.24 1138.99 C 1533.44 1165.43 1490.24 1214.3 1450.67 1183.09 C 1439.01 1173.89 1436.43 1156.48 1435.52 1142.27 C 1430.76 1148.1 1426.07 1153.65 1421.08 1159.26 C 1389.06 1195.18 1332.52 1213.66 1318.43 1150.18 C 1295.55 1173.1 1272.31 1189.4 1239.41 1193.55 C 1194.9 1199.17 1165.22 1169.93 1160.6 1126.54 C 1141.32 1129.46 1104.85 1134.69 1086.6 1140.35 C 1055.4 1184.83 1018.15 1220.92 972.206 1250.29 C 965.177 1254.79 951.804 1260.03 943.753 1259.23 C 908.336 1255.7 927.276 1200.31 929.216 1178.8 L 929.338 1177.36 C 928.901 1177.94 928.456 1178.51 928.003 1179.08 C 910.931 1200.31 882.208 1227.11 853.848 1229 C 802.114 1232.45 792.962 1183.36 790.956 1145.11 C 772.666 1166.01 749.556 1187 720.06 1186.57 C 689.307 1186.13 679.851 1163.9 680.904 1136.86 C 670.178 1152.43 657.009 1170.73 641.259 1181.67 C 608.37 1204.52 572.567 1184.67 570.567 1145.74 C 569.925 1133.25 570.987 1125.89 573.703 1113.47 C 547.232 1126.27 530.15 1131.1 502.157 1136.85 C 492.516 1154.95 484.31 1168.93 467.429 1181.81 C 441.348 1201.72 400.969 1203.22 380.165 1174.6 C 368.932 1159.14 368.302 1140.84 371.241 1122.43 C 353.962 1133.72 331.613 1146.07 313.479 1157.23 C 318.914 1169.98 320.894 1183.94 319.22 1197.7 C 316.342 1219.37 304.951 1239.01 287.565 1252.27 C 267.533 1267.65 225.262 1278.9 210.027 1255.7 C 184.91 1217.46 269.033 1166.75 292.436 1150.81 C 284.602 1136.24 265.943 1115.59 254.791 1102.63 C 219.395 1139.78 186.004 1187.11 154.55 1228.05 C 142.307 1243.99 131.221 1231.37 135.941 1224.01 C 144.483 1210.67 157.602 1195.08 167.625 1182.52 C 192.196 1151.24 217.394 1120.44 243.202 1090.17 C 223.62 1062.14 211.583 1030.87 241.118 1002.5 C 253.155 991.29 274.049 982.017 290.432 983.633 C 340.872 988.607 313.275 1042.27 288.235 1060.37 C 280.155 1066.21 275.446 1073.02 265.181 1072.31 C 260.811 1070.27 257.167 1063.02 260.441 1059.9 C 271.571 1049.27 307.293 1024.71 302.085 1006.04 C 294.436 995.82 271.717 1002.14 262.631 1007.85 C 210.619 1040.53 261.38 1084.23 286.357 1113.67 C 293.593 1122.2 300.424 1131.95 306.458 1141.38 C 322.994 1132.61 381.267 1093.3 393.855 1094.53 C 395.771 1096.07 397.563 1097.72 396.969 1100.59 C 393.151 1118.62 383.357 1132.81 387.761 1152.27 C 392.74 1174.42 417.584 1183.94 438.011 1177.35 C 460.197 1170.19 471.275 1157.85 482.177 1138.17 C 455.848 1134.89 432.925 1129.11 417.738 1104.93 C 409.534 1091.64 406.943 1075.64 410.534 1060.44 C 421.533 1015.03 484.087 987.875 509.799 1038.68 C 523.002 1064.77 518.105 1091.95 509.844 1118.73 C 532.183 1113.67 558.515 1103.89 578.203 1092.16 C 585.025 1076.08 587.331 1056.97 595.027 1040.97 C 598.025 1032.52 610.674 1034.11 610.358 1043.31 C 609.995 1050.59 607.328 1056.6 605.446 1063.54 C 597.755 1091.94 584.374 1123.7 588.112 1153.51 C 589.767 1166.71 606.618 1177.79 618.936 1173.29 C 651.768 1161.28 675.78 1116.57 689.84 1086.37 C 695.912 1073.33 695.628 1052 702.873 1038.81 C 705.042 1033.99 711.552 1034.88 715.517 1037.87 C 727.983 1058.23 659.476 1178.91 728.061 1168.62 C 754.188 1164.7 778.261 1137.46 791.282 1116.12 C 794.301 1111.17 797.681 1084.77 799.21 1076.68 C 801.757 1063.71 804.519 1050.79 807.494 1037.91 C 822.723 973.03 889.098 770.51 963.441 759.268 z M 964.336 776.353 C 966.756 776.651 967.798 776.834 969.892 778.223 C 972.281 779.807 973.943 785.388 973.933 788.106 C 973.609 878.027 874.826 1012.42 821.061 1076.07 C 819.168 1078.54 817.094 1080.98 815.106 1083.38 C 831.592 994.015 868.616 887.35 921.003 811.966 C 930.571 798.197 946.829 779.127 964.336 776.353 z M 1106.53 777.078 C 1111 776.676 1114.06 776.314 1117.77 779.272 C 1120.54 781.479 1122.48 786.894 1122.29 790.116 C 1118.09 862.513 1027.21 973.572 983.162 1023.44 L 975.176 1032.95 C 996.862 958.237 1021.51 879.579 1064.54 813.842 C 1075.81 796.622 1087.64 785.248 1106.53 777.078 z M 1406.95 1035.22 C 1440.74 1033.57 1432.3 1049.49 1443.94 1069.43 C 1445.21 1071.6 1451.5 1071.23 1454.22 1071.23 C 1442.84 1105.48 1413.71 1152.65 1380.66 1169.63 C 1302.04 1201.51 1334.75 1050.31 1406.95 1035.22 z M 1052.2 1051.28 C 1096.67 1048.53 1088.46 1098.15 1076.38 1124.95 C 1069.58 1127.68 1057.32 1130.95 1049.9 1133.41 C 1010.89 1146.4 990.407 1154.29 959.886 1181.8 C 952.746 1188.5 947.805 1194.96 942.313 1202.95 C 944.217 1194.6 946.296 1184.54 948.996 1176.56 C 964.339 1131.18 1000.65 1060.02 1052.2 1051.28 z M 467.422 1028.32 C 494.452 1026.94 501.6 1059.08 500.394 1080.15 C 499.527 1095.3 496.403 1107.27 490.72 1121.13 C 479.463 1121.57 474.763 1121.02 463.814 1118.54 C 407.511 1101.49 418.809 1034.55 467.422 1028.32 z M 1244.6 1029.32 C 1250.75 1029.25 1256.96 1029.56 1262.58 1032.42 C 1267.19 1034.73 1270.65 1038.83 1272.14 1043.77 C 1274.82 1052.68 1271.49 1063.26 1266.77 1070.87 C 1253.97 1091.55 1228.88 1099.3 1206.76 1104.64 C 1196.99 1106.44 1187.12 1107.67 1177.21 1108.33 C 1186.24 1072.06 1202.99 1035.03 1244.6 1029.32 z M 1769.93 1166.85 C 1771.76 1167.01 1770.84 1166.74 1772.52 1168.58 C 1783.42 1212.74 1747.58 1258.95 1702.35 1249.17 C 1697.22 1246.87 1691.9 1243.33 1694.45 1236.81 C 1705.7 1208.1 1744.8 1182.68 1769.93 1166.85 z M 298.321 1167.07 L 299.329 1167.64 C 304.154 1177.07 303.66 1190.16 301.524 1200.36 C 295.015 1231.43 262.685 1257.42 230.556 1250.15 C 197.446 1233.09 284.117 1175.76 298.321 1167.07 z M 1059.38 1148.14 L 1060.1 1148.33 L 1059.9 1149.72 C 1035.99 1178.93 983.541 1228.63 948.982 1243.09 L 947.388 1241.84 C 945.819 1235.12 949.951 1222.84 953.347 1217.27 C 976.667 1179.02 1018.35 1159.66 1059.38 1148.14 z M 1708.05 806.937 L 1709.49 808.384 C 1715.63 829.626 1684.41 891.345 1674.01 911.942 C 1663.26 912.48 1652.51 912.873 1641.75 913.123 L 1640.13 912.623 C 1640.16 909.001 1644.47 900.178 1646.18 896.656 C 1660.12 868.079 1680.59 823.461 1708.05 806.937 z M 1630.89 931.064 C 1641.77 930.175 1652.66 929.506 1663.57 929.057 C 1652.24 949.527 1640.45 969.739 1628.21 989.676 C 1626.57 992.337 1617.43 1007.12 1615.72 1009.01 C 1611.95 1007.1 1608.26 1007.51 1603.92 1007.43 C 1611.79 981.59 1620.78 956.11 1630.89 931.064 z M 1603.92 1007.43 C 1608.26 1007.51 1611.95 1007.1 1615.72 1009.01 C 1609.16 1020.45 1600.98 1032.61 1593.75 1043.78 C 1596.02 1032.05 1600.33 1018.96 1603.92 1007.43 z"/>
  <path fill-rule="evenodd" fill="#E5735E" d="M 1285.69 639.353 C 1333.66 633.53 1377.26 667.742 1383.02 715.728 C 1388.77 763.713 1354.49 807.262 1306.5 812.944 C 1258.6 818.616 1215.17 784.426 1209.42 736.539 C 1203.68 688.653 1237.81 645.164 1285.69 639.353 z M 1285.29 656.493 C 1323.79 650.506 1359.84 676.942 1365.7 715.471 C 1371.56 753.999 1345.01 789.958 1306.46 795.693 C 1268.09 801.4 1232.34 774.995 1226.5 736.645 C 1220.67 698.296 1246.96 662.453 1285.29 656.493 z"/>
  <path fill="#E5735E" d="M 347.654 1256.26 C 350.322 1252.98 350.408 1252.7 354.113 1250.89 C 366.768 1250.99 363.338 1263.12 357.645 1270 C 310.354 1318.45 238.708 1337.55 177.637 1302.01 C 169.958 1297.55 158.976 1293 163.817 1282.08 C 165.768 1280.63 169.586 1278.67 171.968 1280.1 C 238.029 1319.77 290.962 1309.19 347.654 1256.26 z"/>
  </g>
  <path fill-rule="evenodd" fill="#BDF6F0" d="M 963.441 759.268 C 1002.81 759.792 990.243 816.744 982.976 840.515 C 958.968 918.848 910.927 985.46 863.083 1050.8 C 852.132 1069.9 810.558 1106.41 808.878 1126.65 C 798.234 1254.81 889.579 1220.98 932.468 1141.24 C 937.714 1131.48 940.507 1108.57 942.718 1097.59 C 945.762 1082.58 949.136 1067.63 952.836 1052.76 C 971.812 976.134 1017.28 824.61 1081.74 770.432 C 1089.95 763.528 1106.34 758.124 1117.01 760.497 C 1123.23 761.881 1130.04 765.173 1133.04 770.898 C 1162.54 827.146 1058.07 959.892 1026.19 998.773 C 1015.39 1012.04 1004.39 1025.14 993.195 1038.07 C 960.667 1075.61 965.999 1070.9 955.728 1118.96 C 971.586 1092.04 994.438 1056.69 1023.01 1042.88 C 1088.48 1011.25 1115.23 1064.71 1096.41 1120.55 C 1119.27 1117.04 1137.1 1112.62 1160.66 1110.3 C 1165.93 1067.64 1192.22 1020.6 1238.64 1013.34 C 1290.56 1005.23 1304.65 1055.06 1274.03 1089.18 C 1250.98 1114.85 1209.83 1122.66 1177.16 1124.68 C 1186.36 1182.85 1229.82 1188.27 1275.76 1163.22 C 1286.48 1157.57 1315.57 1135.43 1318.12 1122.85 C 1328.17 1073.15 1369.78 1005.94 1429.27 1020.75 C 1439.68 1023.35 1446.45 1031.3 1451.76 1041.42 C 1453.21 1033.26 1454.15 1019.84 1462.51 1015.87 C 1465.51 1014.47 1468.96 1014.41 1472.01 1015.71 C 1496.91 1026.11 1466.59 1087.49 1460.58 1102.85 C 1457.83 1109.91 1455.67 1117.17 1454.11 1124.58 C 1447.68 1154.92 1457.48 1188.16 1493.95 1171.88 C 1513.97 1162.94 1555.74 1119.11 1562.15 1098.1 C 1574.3 1058.32 1581.97 1012.72 1597.14 972.777 C 1602.28 959.241 1608.16 944.522 1613.1 930.909 C 1565.23 935.562 1516.61 937.202 1468.74 942.63 C 1465.65 942.981 1462.88 942.588 1459.93 941.738 C 1455.36 937.88 1454.67 933.625 1457.86 928.519 C 1463.05 924.23 1500.61 922.783 1510.02 922.012 C 1546.72 918.667 1583.49 916.172 1620.31 914.531 C 1636.06 875.963 1662.55 816.877 1698.35 793.131 C 1706.04 788.033 1723.19 791.641 1725.26 801.344 C 1732.65 836.054 1706.98 880.824 1693.16 911.266 C 1748.48 911 1800.5 912.209 1853.13 932.018 C 1877.02 941.009 1863.45 954.51 1854.71 950.874 C 1799.23 927.78 1742.99 927.073 1683.92 928.406 C 1677.64 938.331 1670.83 951.194 1664.71 961.598 C 1651.76 983.407 1638.55 1005.06 1625.08 1026.55 C 1617.93 1037.84 1610.6 1049.01 1603.09 1060.07 C 1593.3 1074.29 1584.5 1083.86 1580.13 1101.35 C 1574.29 1124.69 1561.24 1201.94 1582.43 1218.06 C 1613.74 1241.89 1668.84 1156.78 1685.86 1133.96 C 1696.99 1119.04 1708.4 1104.32 1720.08 1089.82 C 1709.82 1074.96 1700.72 1058.86 1702.24 1040.01 C 1702.45 1011.28 1737.77 977.313 1766.19 982.435 C 1814.83 991.202 1780.62 1048.29 1754.62 1063.25 C 1747.27 1067.48 1743.57 1072.45 1735.3 1071.25 C 1732.01 1068.54 1733.22 1070.16 1731.6 1066.12 C 1731.84 1062.04 1734.76 1056.02 1739.47 1052.93 C 1748.65 1046.9 1790.12 1010.33 1767.33 1000.47 C 1751.65 993.683 1724.35 1015.54 1720.65 1032.77 C 1717.24 1048.66 1720.65 1060.55 1730.16 1074.35 C 1746.33 1097.99 1764.61 1116.44 1779.21 1141.52 C 1814.7 1121.3 1849.56 1101.75 1886.84 1085.02 C 1892.67 1082.5 1899.75 1077.46 1905.1 1083.54 C 1916.71 1096.72 1879.03 1107.02 1867.88 1112.58 C 1840.14 1126.5 1812.9 1141.39 1786.2 1157.2 C 1801.63 1199.3 1784.26 1237.27 1746.75 1259.33 C 1728.42 1268.17 1697.56 1274.15 1681.61 1255.38 C 1677.56 1250.61 1675.88 1239.17 1677.89 1233.18 C 1689.96 1197.15 1734.92 1169.64 1765.02 1150.2 C 1753.57 1131.64 1744.09 1119.59 1730.61 1102.33 C 1727.41 1107.16 1721.95 1114.49 1718.3 1118.91 C 1691.18 1151.89 1640.19 1241.89 1593.13 1239.28 C 1583.29 1238.72 1574.1 1234.19 1567.66 1226.72 C 1548.81 1205.07 1553.69 1164.9 1555.24 1138.99 C 1533.44 1165.43 1490.24 1214.3 1450.67 1183.09 C 1439.01 1173.89 1436.43 1156.48 1435.52 1142.27 C 1430.76 1148.1 1426.07 1153.65 1421.08 1159.26 C 1389.06 1195.18 1332.52 1213.66 1318.43 1150.18 C 1295.55 1173.1 1272.31 1189.4 1239.41 1193.55 C 1194.9 1199.17 1165.22 1169.93 1160.6 1126.54 C 1141.32 1129.46 1104.85 1134.69 1086.6 1140.35 C 1055.4 1184.83 1018.15 1220.92 972.206 1250.29 C 965.177 1254.79 951.804 1260.03 943.753 1259.23 C 908.336 1255.7 927.276 1200.31 929.216 1178.8 L 929.338 1177.36 C 928.901 1177.94 928.456 1178.51 928.003 1179.08 C 910.931 1200.31 882.208 1227.11 853.848 1229 C 802.114 1232.45 792.962 1183.36 790.956 1145.11 C 772.666 1166.01 749.556 1187 720.06 1186.57 C 689.307 1186.13 679.851 1163.9 680.904 1136.86 C 670.178 1152.43 657.009 1170.73 641.259 1181.67 C 608.37 1204.52 572.567 1184.67 570.567 1145.74 C 569.925 1133.25 570.987 1125.89 573.703 1113.47 C 547.232 1126.27 530.15 1131.1 502.157 1136.85 C 492.516 1154.95 484.31 1168.93 467.429 1181.81 C 441.348 1201.72 400.969 1203.22 380.165 1174.6 C 368.932 1159.14 368.302 1140.84 371.241 1122.43 C 353.962 1133.72 331.613 1146.07 313.479 1157.23 C 318.914 1169.98 320.894 1183.94 319.22 1197.7 C 316.342 1219.37 304.951 1239.01 287.565 1252.27 C 267.533 1267.65 225.262 1278.9 210.027 1255.7 C 184.91 1217.46 269.033 1166.75 292.436 1150.81 C 284.602 1136.24 265.943 1115.59 254.791 1102.63 C 219.395 1139.78 186.004 1187.11 154.55 1228.05 C 142.307 1243.99 131.221 1231.37 135.941 1224.01 C 144.483 1210.67 157.602 1195.08 167.625 1182.52 C 192.196 1151.24 217.394 1120.44 243.202 1090.17 C 223.62 1062.14 211.583 1030.87 241.118 1002.5 C 253.155 991.29 274.049 982.017 290.432 983.633 C 340.872 988.607 313.275 1042.27 288.235 1060.37 C 280.155 1066.21 275.446 1073.02 265.181 1072.31 C 260.811 1070.27 257.167 1063.02 260.441 1059.9 C 271.571 1049.27 307.293 1024.71 302.085 1006.04 C 294.436 995.82 271.717 1002.14 262.631 1007.85 C 210.619 1040.53 261.38 1084.23 286.357 1113.67 C 293.593 1122.2 300.424 1131.95 306.458 1141.38 C 322.994 1132.61 381.267 1093.3 393.855 1094.53 C 395.771 1096.07 397.563 1097.72 396.969 1100.59 C 393.151 1118.62 383.357 1132.81 387.761 1152.27 C 392.74 1174.42 417.584 1183.94 438.011 1177.35 C 460.197 1170.19 471.275 1157.85 482.177 1138.17 C 455.848 1134.89 432.925 1129.11 417.738 1104.93 C 409.534 1091.64 406.943 1075.64 410.534 1060.44 C 421.533 1015.03 484.087 987.875 509.799 1038.68 C 523.002 1064.77 518.105 1091.95 509.844 1118.73 C 532.183 1113.67 558.515 1103.89 578.203 1092.16 C 585.025 1076.08 587.331 1056.97 595.027 1040.97 C 598.025 1032.52 610.674 1034.11 610.358 1043.31 C 609.995 1050.59 607.328 1056.6 605.446 1063.54 C 597.755 1091.94 584.374 1123.7 588.112 1153.51 C 589.767 1166.71 606.618 1177.79 618.936 1173.29 C 651.768 1161.28 675.78 1116.57 689.84 1086.37 C 695.912 1073.33 695.628 1052 702.873 1038.81 C 705.042 1033.99 711.552 1034.88 715.517 1037.87 C 727.983 1058.23 659.476 1178.91 728.061 1168.62 C 754.188 1164.7 778.261 1137.46 791.282 1116.12 C 794.301 1111.17 797.681 1084.77 799.21 1076.68 C 801.757 1063.71 804.519 1050.79 807.494 1037.91 C 822.723 973.03 889.098 770.51 963.441 759.268 z M 964.336 776.353 C 966.756 776.651 967.798 776.834 969.892 778.223 C 972.281 779.807 973.943 785.388 973.933 788.106 C 973.609 878.027 874.826 1012.42 821.061 1076.07 C 819.168 1078.54 817.094 1080.98 815.106 1083.38 C 831.592 994.015 868.616 887.35 921.003 811.966 C 930.571 798.197 946.829 779.127 964.336 776.353 z M 1106.53 777.078 C 1111 776.676 1114.06 776.314 1117.77 779.272 C 1120.54 781.479 1122.48 786.894 1122.29 790.116 C 1118.09 862.513 1027.21 973.572 983.162 1023.44 L 975.176 1032.95 C 996.862 958.237 1021.51 879.579 1064.54 813.842 C 1075.81 796.622 1087.64 785.248 1106.53 777.078 z M 1406.95 1035.22 C 1440.74 1033.57 1432.3 1049.49 1443.94 1069.43 C 1445.21 1071.6 1451.5 1071.23 1454.22 1071.23 C 1442.84 1105.48 1413.71 1152.65 1380.66 1169.63 C 1302.04 1201.51 1334.75 1050.31 1406.95 1035.22 z M 1052.2 1051.28 C 1096.67 1048.53 1088.46 1098.15 1076.38 1124.95 C 1069.58 1127.68 1057.32 1130.95 1049.9 1133.41 C 1010.89 1146.4 990.407 1154.29 959.886 1181.8 C 952.746 1188.5 947.805 1194.96 942.313 1202.95 C 944.217 1194.6 946.296 1184.54 948.996 1176.56 C 964.339 1131.18 1000.65 1060.02 1052.2 1051.28 z M 467.422 1028.32 C 494.452 1026.94 501.6 1059.08 500.394 1080.15 C 499.527 1095.3 496.403 1107.27 490.72 1121.13 C 479.463 1121.57 474.763 1121.02 463.814 1118.54 C 407.511 1101.49 418.809 1034.55 467.422 1028.32 z M 1244.6 1029.32 C 1250.75 1029.25 1256.96 1029.56 1262.58 1032.42 C 1267.19 1034.73 1270.65 1038.83 1272.14 1043.77 C 1274.82 1052.68 1271.49 1063.26 1266.77 1070.87 C 1253.97 1091.55 1228.88 1099.3 1206.76 1104.64 C 1196.99 1106.44 1187.12 1107.67 1177.21 1108.33 C 1186.24 1072.06 1202.99 1035.03 1244.6 1029.32 z M 1769.93 1166.85 C 1771.76 1167.01 1770.84 1166.74 1772.52 1168.58 C 1783.42 1212.74 1747.58 1258.95 1702.35 1249.17 C 1697.22 1246.87 1691.9 1243.33 1694.45 1236.81 C 1705.7 1208.1 1744.8 1182.68 1769.93 1166.85 z M 298.321 1167.07 L 299.329 1167.64 C 304.154 1177.07 303.66 1190.16 301.524 1200.36 C 295.015 1231.43 262.685 1257.42 230.556 1250.15 C 197.446 1233.09 284.117 1175.76 298.321 1167.07 z M 1059.38 1148.14 L 1060.1 1148.33 L 1059.9 1149.72 C 1035.99 1178.93 983.541 1228.63 948.982 1243.09 L 947.388 1241.84 C 945.819 1235.12 949.951 1222.84 953.347 1217.27 C 976.667 1179.02 1018.35 1159.66 1059.38 1148.14 z M 1708.05 806.937 L 1709.49 808.384 C 1715.63 829.626 1684.41 891.345 1674.01 911.942 C 1663.26 912.48 1652.51 912.873 1641.75 913.123 L 1640.13 912.623 C 1640.16 909.001 1644.47 900.178 1646.18 896.656 C 1660.12 868.079 1680.59 823.461 1708.05 806.937 z M 1630.89 931.064 C 1641.77 930.175 1652.66 929.506 1663.57 929.057 C 1652.24 949.527 1640.45 969.739 1628.21 989.676 C 1626.57 992.337 1617.43 1007.12 1615.72 1009.01 C 1611.95 1007.1 1608.26 1007.51 1603.92 1007.43 C 1611.79 981.59 1620.78 956.11 1630.89 931.064 z M 1603.92 1007.43 C 1608.26 1007.51 1611.95 1007.1 1615.72 1009.01 C 1609.16 1020.45 1600.98 1032.61 1593.75 1043.78 C 1596.02 1032.05 1600.33 1018.96 1603.92 1007.43 z"/>
  <path fill-rule="evenodd" fill="#F6AF9F" d="M 1285.69 639.353 C 1333.66 633.53 1377.26 667.742 1383.02 715.728 C 1388.77 763.713 1354.49 807.262 1306.5 812.944 C 1258.6 818.616 1215.17 784.426 1209.42 736.539 C 1203.68 688.653 1237.81 645.164 1285.69 639.353 z M 1285.29 656.493 C 1323.79 650.506 1359.84 676.942 1365.7 715.471 C 1371.56 753.999 1345.01 789.958 1306.46 795.693 C 1268.09 801.4 1232.34 774.995 1226.5 736.645 C 1220.67 698.296 1246.96 662.453 1285.29 656.493 z"/>
  <path fill="#F6AF9F" d="M 347.654 1256.26 C 350.322 1252.98 350.408 1252.7 354.113 1250.89 C 366.768 1250.99 363.338 1263.12 357.645 1270 C 310.354 1318.45 238.708 1337.55 177.637 1302.01 C 169.958 1297.55 158.976 1293 163.817 1282.08 C 165.768 1280.63 169.586 1278.67 171.968 1280.1 C 238.029 1319.77 290.962 1309.19 347.654 1256.26 z"/>
</svg>
